<?xml version="1.0" standalone="no"?>
<!DOCTYPE svg PUBLIC "-//W3C//DTD SVG 20010904//EN"
 "http://www.w3.org/TR/2001/REC-SVG-20010904/DTD/svg10.dtd">
<svg version="1.0" xmlns="http://www.w3.org/2000/svg"
 width="1209.000000pt" height="1209.000000pt" viewBox="0 0 1209.000000 1209.000000"
 preserveAspectRatio="xMidYMid meet">
<metadata>
Created by potrace 1.11, written by Peter Selinger 2001-2013
</metadata>
<g transform="translate(0.000000,1209.000000) scale(0.100000,-0.100000)"
fill="#000000" stroke="none">
<path d="M10690 10213 c-232 -40 -432 -144 -599 -311 -372 -370 -426 -911
-135 -1353 58 -88 231 -254 326 -313 92 -57 212 -109 322 -139 71 -19 105 -22
286 -22 195 0 209 1 300 28 557 165 891 682 795 1233 -27 155 -106 331 -206
460 -67 87 -209 215 -297 268 -93 55 -241 117 -322 134 -30 6 -68 14 -85 18
-65 14 -301 12 -385 -3z"/>
<path d="M3339 10176 c-13 -7 -35 -46 -60 -111 -22 -55 -44 -109 -49 -120 -5
-11 -47 -114 -94 -230 -47 -115 -124 -304 -171 -420 -48 -115 -88 -214 -89
-220 -2 -5 -8 -21 -13 -35 -28 -66 -147 -362 -203 -500 -34 -85 -68 -168 -75
-185 -19 -43 -111 -271 -195 -480 -39 -99 -75 -189 -80 -200 -13 -29 -48 -116
-146 -357 -47 -117 -92 -226 -99 -243 -7 -16 -56 -136 -108 -265 -154 -380
-242 -598 -290 -715 -24 -60 -77 -191 -117 -290 -39 -99 -81 -199 -91 -222
-10 -24 -19 -45 -19 -48 0 -3 -9 -27 -21 -53 -12 -26 -24 -56 -29 -67 -4 -11
-21 -54 -38 -95 -49 -121 -150 -371 -301 -745 -78 -192 -146 -359 -151 -370
-5 -11 -52 -128 -105 -260 -53 -132 -102 -253 -110 -270 -8 -16 -71 -172 -141
-345 -277 -688 -345 -856 -354 -875 -12 -27 -74 -179 -76 -185 0 -3 -5 -16
-11 -30 -25 -58 -93 -231 -93 -235 0 -3 2053 -4 4561 -3 l4562 3 168 415 c93
228 172 423 175 433 4 13 0 17 -17 17 -30 0 -269 54 -424 96 -1172 318 -2200
906 -3026 1733 -324 325 -574 630 -815 996 -507 769 -832 1650 -938 2540 -30
252 -39 455 -33 810 7 393 25 628 67 835 28 139 51 282 47 293 -5 16 -966 19
-998 3z"/>
<path d="M6395 10176 c-20 -59 -70 -320 -94 -496 -47 -337 -37 -799 24 -1155
123 -707 418 -1352 884 -1926 113 -138 396 -426 546 -553 611 -521 1337 -869
2149 -1031 169 -34 341 -58 414 -59 l33 -1 65 160 c36 88 142 349 236 580 94
231 203 501 243 600 41 99 103 254 140 345 37 91 75 185 85 210 l18 45 -292 1
c-311 1 -365 6 -626 68 -313 74 -650 232 -921 431 -137 102 -401 368 -495 501
-191 269 -309 531 -378 837 -34 153 -46 267 -46 463 0 309 67 617 195 890 25
53 45 98 45 100 0 1 -500 2 -1111 2 -824 0 -1111 -3 -1114 -12z"/>
</g>
</svg>
